<svg width="32" height="24" viewBox="0 0 32 24" fill="none" xmlns="http://www.w3.org/2000/svg">
<path id="Vector" d="M27.076 1.99455C25.0493 1.06479 22.855 0.389967 20.5692 6.89792e-05C20.5492 -0.00056176 20.5292 0.00313939 20.5108 0.0109123C20.4924 0.0186852 20.4759 0.030341 20.4625 0.0450575C20.1882 0.539928 19.8682 1.18476 19.6549 1.67963C17.2304 1.31972 14.7648 1.31972 12.3404 1.67963C12.1271 1.16976 11.8071 0.539928 11.5175 0.0450575C11.5023 0.0150654 11.4566 6.89792e-05 11.4108 6.89792e-05C9.12507 0.389967 6.94596 1.06479 4.904 1.99455C4.88876 1.99455 4.87353 2.00954 4.85829 2.02454C0.713413 8.12794 -0.429476 14.0664 0.134349 19.9448C0.134349 19.9748 0.149587 20.0048 0.180064 20.0198C2.923 21.9993 5.55926 23.199 8.16505 23.9938C8.21076 24.0088 8.25648 23.9938 8.27171 23.9638C8.88126 23.139 9.42984 22.2692 9.90224 21.3545C9.93271 21.2945 9.90224 21.2345 9.84128 21.2195C8.97269 20.8896 8.14981 20.4997 7.34217 20.0498C7.28121 20.0198 7.28121 19.9299 7.32693 19.8849C7.49455 19.7649 7.66217 19.6299 7.8298 19.51C7.86027 19.48 7.90599 19.48 7.93647 19.495C13.1785 21.8493 18.832 21.8493 24.0131 19.495C24.0436 19.48 24.0893 19.48 24.1198 19.51C24.2874 19.6449 24.455 19.7649 24.6226 19.8999C24.6836 19.9448 24.6836 20.0348 24.6074 20.0648C23.815 20.5297 22.9769 20.9046 22.1083 21.2345C22.0473 21.2495 22.0321 21.3245 22.0473 21.3695C22.535 22.2842 23.0836 23.154 23.6779 23.9788C23.7236 23.9938 23.7693 24.0088 23.815 23.9938C26.436 23.199 29.0723 21.9993 31.8152 20.0198C31.8457 20.0048 31.8609 19.9748 31.8609 19.9448C32.5314 13.1516 30.7485 7.25817 27.137 2.02454C27.1218 2.00954 27.1065 1.99455 27.076 1.99455ZM10.6946 16.3608C9.12507 16.3608 7.81456 14.9362 7.81456 13.1816C7.81456 11.4271 9.09459 10.0024 10.6946 10.0024C12.3099 10.0024 13.59 11.4421 13.5747 13.1816C13.5747 14.9362 12.2947 16.3608 10.6946 16.3608ZM21.3159 16.3608C19.7463 16.3608 18.4358 14.9362 18.4358 13.1816C18.4358 11.4271 19.7158 10.0024 21.3159 10.0024C22.9312 10.0024 24.2112 11.4421 24.196 13.1816C24.196 14.9362 22.9312 16.3608 21.3159 16.3608Z" fill="#000B0F"/>
</svg>
