<svg width="100" height="100" viewBox="0 0 100 100" fill="none" xmlns="http://www.w3.org/2000/svg">
<path d="M23.8151 70.5448V18.9392C23.8151 16.6839 25.6496 14.8457 27.9049 14.8457H54.5253C55.0901 14.8457 55.6105 15.0672 56.0018 15.4584L65.1631 24.6641C65.5581 25.0591 65.7722 25.5758 65.7722 26.1295V70.5448C65.7722 72.7964 63.9377 74.6309 61.6824 74.6309H27.9049C25.6496 74.6309 23.8151 72.7964 23.8151 70.5448ZM72.789 22.6635C72.6192 22.6524 71.6189 22.6488 71.2129 22.6488L71.08 23.948L71.2203 25.251C71.5562 25.251 72.3572 25.2473 72.5269 25.2547C74.5829 25.4651 76.1849 27.3143 76.1849 29.4552V81.0571C76.1849 83.3161 74.3541 85.1469 72.1025 85.1469H38.3176C36.2321 85.1469 34.4825 83.5893 34.2573 81.5296C34.2426 81.2675 34.2315 80.0384 34.2315 79.8575C34.2315 79.1414 33.6483 78.5546 32.9359 78.5546C32.2088 78.5546 31.633 79.1414 31.633 79.8575C31.633 80.079 31.644 81.596 31.6662 81.7954C32.0427 85.1949 34.8959 87.7528 38.3176 87.7528H72.1025C75.7862 87.7528 78.7908 84.7483 78.7908 81.0571V29.4552C78.7908 25.9892 76.159 23.0068 72.789 22.6635ZM64.0927 25.9818C64.0927 25.2621 63.5058 24.6826 62.7898 24.6826H55.9796V17.507C55.9796 16.7872 55.4001 16.2077 54.6803 16.2077C53.9606 16.2077 53.3774 16.7872 53.3774 17.507V25.9818C53.3774 26.7016 53.9606 27.2848 54.6803 27.2848H62.7898C63.5058 27.2848 64.0927 26.7016 64.0927 25.9818ZM68.3781 70.5448V26.1295C68.3781 24.8819 67.8946 23.7155 67.0161 22.8296L57.8473 13.624C56.9615 12.7381 55.7803 12.2435 54.5253 12.2435H27.9049C24.2138 12.2435 21.2092 15.248 21.2092 18.9392V70.5448C21.2092 74.2322 24.2138 77.2368 27.9049 77.2368H61.6824C65.3735 77.2368 68.3781 74.2322 68.3781 70.5448Z" fill="black"/>
</svg>
