<svg width="26" height="26" viewBox="0 0 26 26" fill="none" xmlns="http://www.w3.org/2000/svg">
<g id="Vector">
<path d="M7.29408 14.2697C7.13483 14.5383 6.87483 14.6727 6.51083 14.6727C6.15442 14.6727 5.89658 14.5383 5.73842 14.2697C5.57917 13.9999 5.50008 13.6132 5.50008 13.1073C5.50008 12.6013 5.57917 12.2146 5.73842 11.9448C5.89658 11.6762 6.15442 11.5418 6.51083 11.5418C6.87483 11.5418 7.13483 11.6762 7.29408 11.9448C7.45333 12.2146 7.53242 12.6013 7.53242 13.1073C7.53242 13.6132 7.45333 13.9999 7.29408 14.2697Z" fill="white"/>
<path fill-rule="evenodd" clip-rule="evenodd" d="M13 0C5.82075 0 0 5.82075 0 13C0 20.1793 5.82075 26 13 26C20.1803 26 26 20.1793 26 13C26 5.82075 20.1803 0 13 0ZM1.3 13C1.3 19.4621 6.53792 24.7 13 24.7C19.4621 24.7 24.7 19.4621 24.7 13C24.7 6.53792 19.4621 1.3 13 1.3C6.53792 1.3 1.3 6.53792 1.3 13Z" fill="white"/>
<path fill-rule="evenodd" clip-rule="evenodd" d="M13 24.7C6.53792 24.7 1.3 19.4621 1.3 13C1.3 6.53792 6.53792 1.3 13 1.3C19.4621 1.3 24.7 6.53792 24.7 13C24.7 19.4621 19.4621 24.7 13 24.7ZM7.58117 10.6665C7.87293 10.7931 8.1322 10.9843 8.3395 11.2255C8.5456 11.4719 8.69799 11.7586 8.78692 12.0673C8.88614 12.4049 8.93541 12.7553 8.93317 13.1073C8.93317 13.4777 8.88442 13.8201 8.78692 14.1386C8.68942 14.456 8.541 14.7333 8.3395 14.9695C8.13908 15.2068 7.88558 15.3909 7.58117 15.5242C7.27675 15.6563 6.91925 15.7235 6.51083 15.7235C6.10242 15.7235 5.74817 15.6563 5.447 15.5242C5.14475 15.392 4.89558 15.2068 4.69733 14.9695C4.50017 14.7333 4.35067 14.456 4.251 14.1386C4.15025 13.8201 4.09933 13.4767 4.09933 13.1073C4.09933 12.7378 4.15025 12.3912 4.24992 12.0662C4.3418 11.759 4.49389 11.4733 4.69733 11.2255C4.8945 10.9893 5.14583 10.803 5.447 10.6665C5.74817 10.53 6.10133 10.4618 6.51083 10.4618C6.92033 10.4618 7.27675 10.53 7.58117 10.6665ZM20.0774 8.61467L20.1749 13.3694C20.3931 13.4082 20.6142 13.4278 20.8358 13.4279C21.0427 13.4279 21.2593 13.4084 21.4868 13.3705L21.5843 8.61467C21.3319 8.57567 21.0784 8.55617 20.8249 8.55617C20.5746 8.55662 20.3247 8.57618 20.0774 8.61467ZM21.5453 15.6065C21.5843 15.3671 21.6038 15.1266 21.6038 14.8872C21.6038 14.6597 21.5843 14.4235 21.5453 14.1765C21.2994 14.1375 21.0589 14.118 20.826 14.118C20.5883 14.1184 20.351 14.138 20.1164 14.1765C20.0774 14.4235 20.0579 14.6629 20.0579 14.8969C20.0583 15.1346 20.0779 15.3719 20.1164 15.6065C20.3542 15.6453 20.5948 15.6649 20.8358 15.665C21.0734 15.664 21.3107 15.6445 21.5453 15.6065ZM18.8034 10.5788C18.5694 10.5398 18.3398 10.5213 18.1123 10.5213C17.8842 10.5221 17.6567 10.5406 17.4319 10.5788V14.5178C17.2694 14.5633 17.069 14.5849 16.8285 14.5849C16.653 14.5849 16.5013 14.5643 16.3713 14.5221C16.2454 14.4823 16.1329 14.4085 16.0463 14.3087C15.9497 14.19 15.8828 14.05 15.8513 13.9003C15.8102 13.728 15.7885 13.5092 15.7885 13.2438V10.5788C15.5545 10.5398 15.3248 10.5203 15.0984 10.5203C14.8668 10.5206 14.6356 10.5402 14.4073 10.5788V13.2828C14.4073 13.8201 14.4755 14.2513 14.612 14.5752C14.7474 14.9002 14.9305 15.1461 15.1613 15.3151C15.3988 15.4867 15.6734 15.5999 15.9629 15.6455C16.6318 15.7577 17.3153 15.7492 17.9812 15.6206C18.3213 15.5523 18.5954 15.483 18.8034 15.4115V10.5788ZM13.4734 14.0216C13.4734 13.7876 13.4453 13.5904 13.3868 13.4279C13.3283 13.2665 13.247 13.13 13.143 13.0195C13.0401 12.9101 12.9144 12.8169 12.7692 12.7432C12.6241 12.6685 12.4594 12.6057 12.2774 12.5537L11.7238 12.3879C11.5613 12.3359 11.4368 12.2807 11.349 12.2222C11.2612 12.1637 11.2179 12.064 11.2179 11.921C11.214 11.8547 11.2293 11.7887 11.262 11.7308C11.2947 11.673 11.3433 11.6258 11.4021 11.5949C11.5256 11.5267 11.6978 11.4931 11.9178 11.4931C12.1179 11.492 12.3174 11.5164 12.5114 11.5657C12.6871 11.6106 12.8594 11.6678 13.0271 11.7368C13.1044 11.5846 13.1661 11.4249 13.2113 11.2602C13.2613 11.0887 13.294 10.9127 13.3088 10.7348C13.0652 10.6463 12.8148 10.5778 12.5602 10.53C12.3132 10.4845 12.064 10.4628 11.8105 10.4628C11.2017 10.4628 10.7207 10.6015 10.3675 10.881C10.0133 11.1594 9.83667 11.5451 9.83667 12.038C9.83667 12.4464 9.9385 12.7519 10.1433 12.9567C10.348 13.1614 10.6308 13.3153 10.9948 13.4182L11.5971 13.5937C11.7373 13.6322 11.8704 13.6929 11.9914 13.7735C12.0846 13.8418 12.1323 13.9533 12.1323 14.1093C12.1366 14.2072 12.1033 14.3029 12.0391 14.3769C11.9752 14.447 11.8978 14.5034 11.8116 14.5427C11.7173 14.5857 11.6173 14.6149 11.5148 14.6293C11.4075 14.6456 11.3089 14.6543 11.2179 14.6543C11.0099 14.6543 10.8106 14.6337 10.6199 14.5903C10.4282 14.5481 10.2267 14.4853 10.0122 14.4008C9.93465 14.5685 9.87124 14.7425 9.82258 14.9208C9.77485 15.0943 9.74401 15.2721 9.7305 15.4516C9.85486 15.4994 9.98138 15.5413 10.1097 15.5773C10.2266 15.6096 10.3447 15.637 10.4639 15.6596C10.5879 15.6828 10.713 15.6991 10.8388 15.7083C10.9812 15.7183 11.1239 15.723 11.2667 15.7224C11.6101 15.7224 11.9178 15.6791 12.1908 15.5924C12.4426 15.5154 12.6783 15.3932 12.8863 15.2317C13.0705 15.0887 13.2194 14.9051 13.3212 14.6952C13.423 14.4854 13.4751 14.2548 13.4734 14.0216Z" fill="white"/>
</g>
</svg>
