<svg width="150" height="150" viewBox="0 0 150 150" fill="none" xmlns="http://www.w3.org/2000/svg">
<g id="Group 168">
<rect id="Rectangle 59" x="0.5" y="0.5" width="149" height="149" rx="14.5" stroke="#00FF80"/>
<path id="Vector" d="M95.2292 57.4905C91.6191 55.8634 87.7104 54.6824 83.6389 54.0001C83.6032 53.999 83.5677 54.0055 83.5348 54.0191C83.502 54.0327 83.4727 54.0531 83.4489 54.0789C82.9603 54.9449 82.3903 56.0733 82.0103 56.9394C77.6917 56.3095 73.2999 56.3095 68.9813 56.9394C68.6013 56.0471 68.0313 54.9449 67.5156 54.0789C67.4884 54.0264 67.407 54.0001 67.3256 54.0001C63.254 54.6824 59.3725 55.8634 55.7353 57.4905C55.7081 57.4905 55.681 57.5167 55.6538 57.5429C48.2708 68.2239 46.235 78.6162 47.2393 88.9035C47.2393 88.956 47.2665 89.0085 47.3207 89.0347C52.2066 92.4988 56.9024 94.5982 61.544 95.9891C61.6254 96.0154 61.7068 95.9891 61.734 95.9366C62.8197 94.4933 63.7969 92.9712 64.6384 91.3703C64.6926 91.2654 64.6384 91.1604 64.5298 91.1342C62.9826 90.5568 61.5168 89.8745 60.0782 89.0872C59.9697 89.0347 59.9697 88.8772 60.0511 88.7985C60.3497 88.5886 60.6482 88.3524 60.9468 88.1424C61.0011 88.0899 61.0825 88.0899 61.1368 88.1162C70.4742 92.2364 80.5445 92.2364 89.7733 88.1162C89.8276 88.0899 89.9091 88.0899 89.9633 88.1424C90.2619 88.3786 90.5605 88.5886 90.8591 88.8248C90.9677 88.9035 90.9676 89.0609 90.8319 89.1134C89.4205 89.927 87.9276 90.583 86.3804 91.1604C86.2718 91.1866 86.2447 91.3179 86.2718 91.3966C87.1404 92.9974 88.1176 94.5195 89.1762 95.9629C89.2576 95.9891 89.339 96.0154 89.4205 95.9891C94.0892 94.5982 98.785 92.4988 103.671 89.0347C103.725 89.0085 103.752 88.956 103.752 88.9035C104.947 77.0153 101.771 66.7018 95.3378 57.5429C95.3106 57.5167 95.2835 57.4905 95.2292 57.4905ZM66.0498 82.6314C63.254 82.6314 60.9197 80.1383 60.9197 77.0678C60.9197 73.9974 63.1997 71.5043 66.0498 71.5043C68.927 71.5043 71.2071 74.0236 71.18 77.0678C71.18 80.1383 68.8999 82.6314 66.0498 82.6314ZM84.9689 82.6314C82.1731 82.6314 79.8388 80.1383 79.8388 77.0678C79.8388 73.9974 82.1188 71.5043 84.9689 71.5043C87.8461 71.5043 90.1262 74.0236 90.0991 77.0678C90.0991 80.1383 87.8461 82.6314 84.9689 82.6314Z" fill="white"/>
</g>
</svg>
