<svg width="36" height="36" viewBox="0 0 36 36" fill="none" xmlns="http://www.w3.org/2000/svg">
<g id="Broccoli Logo">
<path d="M16.654 36L9.37397 33.6637C12.0907 28.9579 10.3217 22.5602 8.97995 20.2315C9.81952 21.0793 11.4611 20.9135 12.177 20.7246C12.0594 24.8053 13.1466 27.2246 13.8288 27.863C14.8151 26.2984 15.5116 20.8212 15.6126 18.3393L16.2402 17.8325C16.248 21.2203 17.5445 23.0719 18.1917 23.5741C17.6551 26.0212 15.6842 29.0071 14.7658 30.1942C17.162 28.5913 18.7809 26.0003 19.2908 24.9052C20.994 26.0104 22.479 26.1148 23.0085 26.0288C17.7513 28.7278 16.5816 33.8009 16.654 36Z" fill="#00FF80"/>
<path d="M14.4253 8.7369C14.2458 13.1454 10.8728 16.5606 6.89143 16.365C2.91006 16.1694 -0.172003 12.4371 0.00745574 8.0286C0.186915 3.62012 3.55994 0.204903 7.54131 0.400496C11.5227 0.59609 14.6048 4.32843 14.4253 8.7369Z" fill="#00FF80"/>
<path d="M23.3246 13.6556C21.205 17.1773 22.0639 21.9327 25.243 24.2772C28.4221 26.6216 32.7175 25.6673 34.8371 22.1456C36.9568 18.6239 36.0979 13.8685 32.9188 11.5241C29.7397 9.17962 25.4443 10.134 23.3246 13.6556Z" fill="#00FF80"/>
<path d="M21.3228 0.338214C18.3574 -0.775319 15.4635 1.12575 14.3873 2.21548C15.6721 4.053 15.8286 5.00618 15.8941 5.88315C17.8662 7.53935 18.6246 11.9453 18.6095 13.3112C19.5561 11.5296 24.598 9.34868 25.7509 9.36051C24.9479 9.70193 25.8234 8.7726 25.7509 9.36051C26.4468 7.1767 25.0296 1.73013 21.3228 0.338214Z" fill="#00FF80"/>
<path d="M16.9106 13.295C16.7794 16.518 14.3134 19.0148 11.4026 18.8718C8.49185 18.7288 6.23858 16.0001 6.36978 12.7771C6.50099 9.55414 8.96698 7.0573 11.8777 7.2003C14.7885 7.3433 17.0418 10.072 16.9106 13.295Z" fill="#00FF80"/>
<path d="M19.0786 15.3543C17.529 17.929 18.1569 21.4056 20.4811 23.1196C22.8053 24.8336 25.9457 24.1359 27.4953 21.5613C29.0449 18.9866 28.417 15.5099 26.0928 13.7959C23.7686 12.0819 20.6283 12.7796 19.0786 15.3543Z" fill="#00FF80"/>
</g>
</svg>
